<svg xmlns="http://www.w3.org/2000/svg" version="1.1" xmlns:xlink="http://www.w3.org/1999/xlink" viewBox="0 0 200 200"><rect width="200" height="200" fill="url('#gradient')"></rect><defs><linearGradient id="gradient" gradientTransform="rotate(187 0.5 0.5)"><stop offset="0%" stop-color="#000000"></stop><stop offset="100%" stop-color="#0b0101"></stop></linearGradient></defs><g><g fill="#3df383" transform="matrix(1.1648703364504,0,0,1.1648703364504,40.59063602302661,106.31351911113978)" stroke="#7c0b63" stroke-width="0.2"><path d="M12.24-14.22L12.24-11.57L7.97-11.57L7.97 0L4.54 0L4.54-11.57L0.35-11.57L0.35-14.22L12.24-14.22ZM16.75-15L16.75-9.43Q17.80-10.76 19.44-10.76L19.44-10.76Q21.19-10.76 22.08-9.73Q22.97-8.69 22.99-6.67L22.99-6.67L22.99 0L19.69 0L19.69-6.59Q19.69-7.43 19.35-7.83Q19.00-8.22 18.18-8.22L18.18-8.22Q17.17-8.22 16.75-7.58L16.75-7.58L16.75 0L13.46 0L13.46-15L16.75-15ZM29.93 0.20L29.93 0.20Q27.50 0.20 26.00-1.25Q24.49-2.71 24.49-5.03L24.49-5.03L24.49-5.30Q24.49-6.92 25.09-8.16Q25.69-9.40 26.85-10.08Q28.00-10.76 29.58-10.76L29.58-10.76Q31.81-10.76 33.10-9.38Q34.38-8.00 34.38-5.53L34.38-5.53L34.38-4.25L27.84-4.25Q28.02-3.36 28.61-2.85Q29.21-2.34 30.16-2.34L30.16-2.34Q31.72-2.34 32.60-3.44L32.60-3.44L34.10-1.66Q33.49-0.81 32.36-0.31Q31.23 0.20 29.93 0.20ZM29.56-8.22L29.56-8.22Q28.12-8.22 27.84-6.31L27.84-6.31L31.16-6.31L31.16-6.56Q31.18-7.35 30.76-7.79Q30.34-8.22 29.56-8.22ZM44.81-8.30L44.81-5.66L39.29-5.66L39.29 0L35.86 0L35.86-14.22L45.37-14.22L45.37-11.57L39.29-11.57L39.29-8.30L44.81-8.30ZM50.12-10.57L50.12 0L46.82 0L46.82-10.57L50.12-10.57ZM46.62-13.29L46.62-13.29Q46.62-13.99 47.13-14.44Q47.64-14.89 48.45-14.89Q49.26-14.89 49.77-14.44Q50.27-13.99 50.27-13.29Q50.27-12.59 49.77-12.14Q49.26-11.69 48.45-11.69Q47.64-11.69 47.13-12.14Q46.62-12.59 46.62-13.29ZM55.62-15L55.62 0L52.31 0L52.31-15L55.62-15ZM57.67-10.57L60.75-10.57L60.86-9.33Q61.98-10.76 63.88-10.76L63.88-10.76Q65.88-10.76 66.58-9.17L66.58-9.17Q67.66-10.76 69.69-10.76L69.69-10.76Q72.90-10.76 72.99-6.88L72.99-6.88L72.99 0L69.69 0L69.69-6.67Q69.69-7.48 69.41-7.85Q69.14-8.22 68.42-8.22L68.42-8.22Q67.44-8.22 66.96-7.35L66.96-7.35L66.97-7.22L66.97 0L63.67 0L63.67-6.65Q63.67-7.48 63.41-7.85Q63.14-8.22 62.40-8.22L62.40-8.22Q61.46-8.22 60.96-7.35L60.96-7.35L60.96 0L57.67 0L57.67-10.57ZM78.34-10.57L78.34 0L75.04 0L75.04-10.57L78.34-10.57ZM74.84-13.29L74.84-13.29Q74.84-13.99 75.35-14.44Q75.86-14.89 76.67-14.89Q77.48-14.89 77.99-14.44Q78.50-13.99 78.50-13.29Q78.50-12.59 77.99-12.14Q77.48-11.69 76.67-11.69Q75.86-11.69 75.35-12.14Q74.84-12.59 74.84-13.29ZM79.98-5.24L79.98-5.36Q79.98-6.96 80.51-8.19Q81.04-9.42 82.02-10.09Q83.01-10.76 84.32-10.76L84.32-10.76Q85.97-10.76 86.89-9.65L86.89-9.65L87.01-10.57L90-10.57L90-0.40Q90 1.00 89.35 2.03Q88.70 3.06 87.47 3.61Q86.24 4.16 84.62 4.16L84.62 4.16Q83.46 4.16 82.37 3.72Q81.28 3.28 80.70 2.58L80.70 2.58L82.08 0.64Q83.00 1.73 84.50 1.73L84.50 1.73Q86.69 1.73 86.69-0.52L86.69-0.52L86.69-0.85Q85.74 0.20 84.30 0.20L84.30 0.20Q82.36 0.20 81.17-1.28Q79.98-2.76 79.98-5.24L79.98-5.24ZM83.28-5.16L83.28-5.16Q83.28-3.86 83.77-3.10Q84.26-2.34 85.14-2.34L85.14-2.34Q86.20-2.34 86.69-3.06L86.69-3.06L86.69-7.50Q86.21-8.22 85.16-8.22L85.16-8.22Q84.28-8.22 83.78-7.44Q83.28-6.65 83.28-5.16ZM91.46-4.82L91.46-5.38Q91.46-6.96 92.07-8.20Q92.69-9.43 93.84-10.10Q94.99-10.76 96.54-10.76L96.54-10.76Q98.92-10.76 100.28-9.29Q101.65-7.82 101.65-5.29L101.65-5.29L101.65-5.18Q101.65-2.71 100.28-1.25Q98.91 0.20 96.56 0.20L96.56 0.20Q94.31 0.20 92.94-1.16Q91.57-2.51 91.46-4.82L91.46-4.82ZM94.76-5.77L94.75-5.18Q94.75-3.71 95.21-3.03Q95.66-2.34 96.56-2.34L96.56-2.34Q98.32-2.34 98.36-5.05L98.36-5.05L98.36-5.38Q98.36-8.22 96.54-8.22L96.54-8.22Q94.89-8.22 94.76-5.77L94.76-5.77Z"></path></g></g></svg>